<svg
  xmlns="http://www.w3.org/2000/svg"
  fill="currentColor"
  stroke="currentColor"
  stroke-width="0"
  viewbox="0 0 512 512"
  height="20"
  width="20"
  aria-hidden="true"
  focusable="false"><defs/>
  <path
    stroke="none"
    d="M459.37 151.72c.33 4.54.33 9.1.33 13.64 0 138.72-105.59 298.56-298.56 298.56-59.45 0-114.68-17.22-161.14-47.1 8.45.97
      16.57 1.3 25.34 1.3 49.05 0 94.21-16.58 130.27-44.84a105.12 105.12 0 01-98.1-72.77c6.49.97 12.99 1.62 19.81 1.62 9.42 0
      18.84-1.3 27.61-3.57A104.95 104.95 0 0120.8 195.57v-1.3a105.68 105.68 0 0047.43 13.32 104.86 104.86 0
      01-46.78-87.39c0-19.49 5.2-37.36 14.3-52.95a298.27 298.27 0 00216.36 109.8c-1.62-7.8-2.6-15.91-2.6-24.03 0-57.83
      46.78-104.94 104.94-104.94 30.2 0 57.5 12.67 76.67 33.14a206.6 206.6 0 0066.6-25.34 104.65 104.65 0 01-46.14
      57.83c21.12-2.28 41.59-8.13 60.43-16.25a225.57 225.57 0 01-52.63 54.26z"/>
</svg>